# xmcd
#
# Track frame offsets: 
#        150
#        22122
#        46557
#        80171
#        115849
#        138531
#        167408
#        206706
#        232055
#        259583
#        292631
#        319127
#
# Disc length: 4566 seconds
#
# Revision: 0
# Processed by: cddbd v1.5.2PL0 Copyright (c) Steve Scherf et al.
# Submitted via: ExactAudioCopy v1.0b4
#
DISCID=a211d40c
DTITLE=Ray Fuller and The Bluesrockers - Live At Buddy Guy's Legends
DYEAR=2014
DGENRE=Blues
TTITLE0=Wild About You Baby
TTITLE1=Rock N Roll Cowboy
TTITLE2=Boom Boom
TTITLE3=Love And Alcohol
TTITLE4=Bayou Blue
TTITLE5=Walkin' Shoes
TTITLE6=So Many Roads
TTITLE7=Take Out Some Insurance Baby
TTITLE8=Rockinitus
TTITLE9=Feelin' Evil
TTITLE10=Sallie Mae
TTITLE11=I Wouldn't Lay My Guitar Down
EXTD=
EXTT0=
EXTT1=
EXTT2=
EXTT3=
EXTT4=
EXTT5=
EXTT6=
EXTT7=
EXTT8=
EXTT9=
EXTT10=
EXTT11=
PLAYORDER=
